<?xml version="1.0" encoding="UTF-8"?>
<svg version="1.1" xmlns="http://www.w3.org/2000/svg" width="309" height="292">
<path d="M0 0 C101.97 0 203.94 0 309 0 C309 96.36 309 192.72 309 292 C207.03 292 105.06 292 0 292 C0 195.64 0 99.28 0 0 Z " fill="#FEFEFE" transform="translate(0,0)"/>
<path d="M0 0 C2.51781988 2.21915956 4.89170124 4.50792412 7.2265625 6.91796875 C7.81308594 7.50707031 8.39960938 8.09617187 9.00390625 8.703125 C19.74110952 20.25996211 21.92068412 34.82512764 21.50390625 49.9765625 C20.82179689 64.7820151 16.01850944 77.74640042 6.2265625 88.91796875 C7.57714364 91.93184948 9.08261025 94.02143645 11.421875 96.34375 C12.05206543 96.9725708 12.68225586 97.6013916 13.33154297 98.24926758 C13.99814941 98.90306396 14.66475586 99.55686035 15.3515625 100.23046875 C16.36500732 101.23533325 16.36500732 101.23533325 17.39892578 102.26049805 C21.43684924 106.23968278 25.52995151 110.10972463 29.90625 113.71875 C31.2265625 114.91796875 31.2265625 114.91796875 32.2265625 116.91796875 C27.37043889 117.11672391 22.5167124 117.26134196 17.6574707 117.35742188 C16.00731139 117.39749233 14.35743328 117.45196923 12.70825195 117.52148438 C-0.99277312 118.08425677 -0.99277312 118.08425677 -5.35546875 115.22680664 C-7.13183985 113.20389875 -8.4473353 111.25310345 -9.7734375 108.91796875 C-11.65989346 106.37389747 -13.21082534 104.91680623 -15.7734375 102.91796875 C-19.45903331 102.93610631 -19.45903331 102.93610631 -22.03515625 103.47265625 C-38.08065856 106.0820532 -52.32684774 102.45596689 -65.6953125 93.65234375 C-76.39587234 85.50421103 -82.96654647 71.97091145 -84.7734375 58.91796875 C-86.27538924 41.49971836 -84.70403915 25.24494991 -73.7734375 10.91796875 C-64.99772542 0.71259127 -55.928529 -5.27057629 -42.7734375 -8.08203125 C-41.8040625 -8.30890625 -40.8346875 -8.53578125 -39.8359375 -8.76953125 C-25.99033268 -10.18234807 -11.441841 -8.58943839 0 0 Z " fill="#030203" transform="translate(180.7734375,96.08203125)"/>
<path d="M0 0 C8.62387388 8.31027847 10.63893278 19.33589328 11 30.875 C10.76848895 42.0454082 7.75625546 53.38649476 -0.5 61.3125 C-6.62569878 66.08577178 -14.22030851 67.55302702 -21.86328125 67.2890625 C-28.30767031 66.36403058 -35.18435388 63.04908259 -39.3125 57.9375 C-44.17635795 49.64444724 -47.69766794 41.84091739 -47.5625 32.125 C-47.55126099 31.06224854 -47.55126099 31.06224854 -47.53979492 29.97802734 C-47.31542996 19.04054874 -44.59842582 9.116432 -36.875 1 C-26.65795431 -8.39879745 -10.84033672 -8.67226937 0 0 Z " fill="#FBFCFB" transform="translate(167.3125,113.0625)"/>
</svg>
