<svg id="圖層_10" data-name="圖層 10" xmlns="http://www.w3.org/2000/svg" viewBox="0 0 923.86 923.86"><defs><style>.cls-1,.cls-3{fill:#fff;}.cls-1,.cls-2,.cls-3{stroke:#fff;stroke-miterlimit:10;}.cls-2{fill:#040000;stroke-width:2px;}.cls-3{stroke-width:0.01px;}</style></defs><circle class="cls-1" cx="461.93" cy="461.93" r="461.43"/><circle class="cls-2" cx="461.93" cy="461.93" r="435.72"/><path class="cls-3" d="M655.3,917.4c17.6-7.31,95.18-55.48,93.19-61-21.07-58.63-43.52-109.15-60.9-133-48.15-66.21-121.12-156.73-65.7-208.39,0,0,35.27-3.93,51.32-47.73,0,0,12.37-15.05,13-21.4s8-19.06-9-42.8-23.74-90.27-23.74-90.27-2-25.75-31.59-62.36c0,0-22.57-54.67,16.05-101.31,0,0-31.85-8.28-72,48.4,0,0-14.05-1.51-21.32-12.29s-7.77-12-7.77-12-8.19-15.88,19-54.33c0,0-235.39,85.59-263.47,330.34,0,0-65.88,117.9-38.12,290.23,5.59,34.67-5.85,69.21-6.93,114.55-.18,7.55,80.58,48.2,87.34,51.57C439,957.43,558.11,957.81,655.3,917.4Z" transform="translate(-38.07 -38.07)"/></svg>